<svg width="117" height="30" viewBox="0 0 117 30" fill="none" xmlns="http://www.w3.org/2000/svg">
<path d="M43.8987 18.9205L46.6554 19.7596C46.4241 20.2996 46.1252 20.8225 45.7585 21.3279C45.3918 21.8333 44.9312 22.331 44.3772 22.821C43.8272 23.311 43.1474 23.7026 42.338 23.9957C41.5248 24.289 40.6436 24.4355 39.6948 24.4355C38.5108 24.4355 37.4295 24.2277 36.4509 23.8118C35.4721 23.3963 34.5961 22.7726 33.8227 21.9412C33.3191 21.4 32.8977 20.7903 32.5655 20.1371C32.2105 19.4386 31.9576 18.6945 31.7884 17.9342C31.5775 16.9855 31.4918 16.0111 31.4963 15.0414C31.4992 14.4043 31.5628 13.7787 31.6317 13.1461C31.743 12.3671 31.9305 11.5968 32.217 10.8603C32.4808 10.1823 32.8294 9.53508 33.2659 8.94579C33.4386 8.71281 33.6244 8.48921 33.8227 8.27595C34.5961 7.44455 35.4721 6.82087 36.4509 6.40541C37.4295 5.98947 38.5108 5.78174 39.6948 5.78174C40.6436 5.78174 41.5248 5.92816 42.338 6.22148C43.1474 6.51457 43.8272 6.90623 44.3772 7.39622C44.9312 7.88622 45.3918 8.38391 45.7585 8.88929C46.1252 9.39467 46.4241 9.91761 46.6554 10.4576L43.8987 11.2967C43.5559 10.4672 43.0078 9.7671 42.2543 9.19608C41.8756 8.90876 41.4689 8.6931 41.0344 8.54932C40.5999 8.40579 40.1375 8.3339 39.6471 8.3339C38.1361 8.3339 36.9302 8.94531 36.0293 10.1684C35.5767 10.7779 35.2373 11.4967 35.0112 12.3253C34.8428 12.9422 34.7369 13.6197 34.6942 14.3579L34.69 15.7882C34.7302 16.5539 34.8373 17.2553 35.0112 17.8919C35.2373 18.7205 35.5767 19.4393 36.0293 20.0488C36.9302 21.2719 38.1361 21.8833 39.6471 21.8833C40.1375 21.8833 40.5999 21.8114 41.0344 21.6679C41.4689 21.5241 41.8756 21.3084 42.2543 21.0211C43.0078 20.4501 43.5559 19.75 43.8987 18.9205Z" fill="#1D1D1D"/>
<path d="M58.8741 11.9931C58.4456 11.5226 57.8729 11.1694 57.1564 10.934C56.4399 10.6989 55.5793 10.5811 54.5746 10.5811C53.5021 10.5811 52.4775 10.803 51.5009 11.2466C50.5282 11.6902 49.691 12.3112 48.9894 13.1099L50.7894 14.603C51.3275 14.0146 51.916 13.5734 52.5548 13.2792C53.1938 12.9851 53.883 12.838 54.6223 12.838C55.3997 12.838 56.0218 13.0195 56.4881 13.3821C56.9584 13.7446 57.1937 14.2423 57.1937 14.8751V15.5753C56.9124 15.6582 56.5303 15.745 56.0469 15.8359C55.5637 15.9265 54.9791 16.021 54.2934 16.1193C50.5263 16.6596 48.6426 18.1584 48.6426 20.6159C48.6426 21.7461 49.0632 22.6662 49.9047 23.376C50.3253 23.7292 50.8254 23.9939 51.4055 24.1704C51.9856 24.3468 52.6452 24.4351 53.3848 24.4351C54.3177 24.4351 55.1309 24.2365 55.8245 23.8391C56.5182 23.4378 57.0046 22.9596 57.2836 22.4039V24.03H60.1598V15.9397C60.1598 14.25 59.7313 12.9344 58.8741 11.9931ZM57.1937 18.7872C57.1937 19.7669 56.8628 20.5579 56.2009 21.1597C55.87 21.4605 55.5048 21.6862 55.105 21.8368C54.7053 21.9873 54.2715 22.0625 53.803 22.0625C53.1493 22.0625 52.6231 21.9005 52.2244 21.5764C51.8296 21.2525 51.6323 20.8493 51.6323 20.367C51.6323 19.7496 51.8795 19.249 52.3739 18.8653C52.8683 18.4816 53.6097 18.2142 54.5985 18.0639C55.6111 17.9134 56.4762 17.7552 57.1937 17.5893V18.7872Z" fill="#1D1D1D"/>
<path d="M62.1484 21.316L64.2714 20.1182C65.2043 21.4453 66.4182 22.1089 67.913 22.1089C68.6464 22.1089 69.2265 21.97 69.6531 21.6923C70.0837 21.4107 70.2988 21.0364 70.2988 20.5697C70.2988 20.1956 70.1234 19.8638 69.7726 19.5743C69.4218 19.2889 69.0511 19.0747 68.6603 18.9319C68.2738 18.7891 67.6897 18.5982 66.9083 18.359C66.7687 18.3126 66.6691 18.2818 66.6095 18.2664C66.0472 18.0851 65.5749 17.9077 65.1923 17.7341C64.8137 17.5605 64.413 17.327 63.9904 17.0339C63.5718 16.7406 63.2528 16.3723 63.0336 15.9287C62.8143 15.4813 62.7047 14.9641 62.7047 14.3777C62.7047 13.2318 63.2031 12.3117 64.1996 11.6173C65.1963 10.9268 66.4341 10.5815 67.913 10.5815C69.0213 10.5815 70.0658 10.8631 71.0464 11.4264C72.027 11.9936 72.7586 12.7129 73.2409 13.585L71.2794 14.7424C70.3584 13.5194 69.2442 12.9079 67.9366 12.9079C67.2231 12.9079 66.6748 13.0469 66.2922 13.3246C65.9096 13.6061 65.7181 13.9728 65.7181 14.4241C65.7181 14.7982 65.8855 15.1338 66.2204 15.431C66.5553 15.7243 66.9021 15.9383 67.2609 16.0734C67.6196 16.2086 68.126 16.3821 68.7798 16.5942C68.9513 16.6406 69.0747 16.6772 69.1505 16.7041C71.9251 17.5643 73.3124 18.8607 73.3124 20.5928C73.3124 21.6653 72.8481 22.5739 71.9192 23.3185C70.9942 24.0631 69.6827 24.4353 67.9843 24.4353C66.6768 24.4353 65.5126 24.1576 64.4922 23.602C63.4719 23.0425 62.6905 22.2806 62.1484 21.316Z" fill="#1D1D1D"/>
<path d="M77.3798 13.4285H75.2988V10.9865H77.3798V7.12061H80.3218V10.9862H83.4075V13.4283H80.3218V19.8461C80.3218 20.4632 80.4493 20.909 80.7044 21.1828C80.9635 21.4528 81.3583 21.588 81.8885 21.588H83.4313V24.03H81.5119C78.7571 24.03 77.3798 22.7028 77.3798 20.0485V13.4285Z" fill="#1D1D1D"/>
<path d="M88.362 24.0301H85.4199V5.56396H88.362V24.0301Z" fill="#1D1D1D"/>
<path d="M101.024 12.4559C100.448 11.831 99.7934 11.3622 99.0607 11.0497C98.3283 10.7373 97.5174 10.5811 96.6285 10.5811C94.8225 10.5811 93.3237 11.2021 92.1317 12.4444C90.9436 13.6867 90.3496 15.3553 90.3496 17.4501C90.3496 19.5758 90.9436 21.2715 92.1319 22.5371C92.7279 23.1697 93.4104 23.6443 94.1798 23.9607C94.9493 24.2771 95.8054 24.4353 96.7482 24.4353C98.211 24.4353 99.4331 24.1112 100.414 23.463C101.395 22.8148 102.104 22.0087 102.543 21.0441L100.067 20.2338C99.768 20.7892 99.3355 21.2446 98.7693 21.5995C98.4843 21.7769 98.1773 21.9099 97.8483 21.9988C97.5194 22.0873 97.1686 22.1318 96.7959 22.1318C95.7197 22.1318 94.8745 21.773 94.2606 21.0554C93.6467 20.3415 93.3396 19.487 93.3396 18.4917H102.68C102.704 18.3024 102.722 18.112 102.734 17.9202C102.746 17.7283 102.752 17.535 102.752 17.34C102.752 15.3339 102.176 13.7059 101.024 12.4559ZM93.3813 16.4778C93.3975 15.5135 93.6983 14.6744 94.2842 13.9605C94.5753 13.6016 94.9162 13.3325 95.3068 13.1532C95.6973 12.9738 96.1381 12.8841 96.6282 12.8841C97.613 12.8841 98.3765 13.2354 98.9186 13.9374C99.4649 14.6357 99.738 15.4825 99.738 16.4778H93.3813V16.4778Z" fill="#1D1D1D"/>
<path d="M113.9 5.56396V12.433C113.585 11.9353 113.136 11.5011 112.554 11.1309C112.261 10.9474 111.942 10.8101 111.597 10.7185C111.252 10.6267 110.882 10.581 110.485 10.581C108.818 10.581 107.445 11.1982 106.365 12.4328C105.28 13.6674 104.738 15.3552 104.738 17.4965C104.738 18.7042 104.906 19.7709 105.24 20.6968C105.575 21.6227 106.028 22.35 106.598 22.8785C107.164 23.4031 107.776 23.7948 108.434 24.0532C108.761 24.1807 109.093 24.2761 109.431 24.3398C109.769 24.4033 110.112 24.4353 110.461 24.4353C111.242 24.4353 111.956 24.229 112.602 23.8162C113.247 23.3995 113.71 22.9057 113.989 22.3346V24.0301H116.841V5.56396H113.9ZM113.092 20.7836C112.807 21.1868 112.481 21.489 112.113 21.6905C111.745 21.8922 111.336 21.993 110.885 21.993C109.949 21.993 109.197 21.5975 108.631 20.8067C108.061 20.0157 107.776 18.9124 107.776 17.4965C107.776 16.1424 108.049 15.0583 108.595 14.2444C108.868 13.8374 109.196 13.532 109.577 13.3286C109.959 13.125 110.395 13.0233 110.885 13.0233C111.818 13.0233 112.562 13.4342 113.116 14.256C113.391 14.6649 113.597 15.1395 113.735 15.6796C113.872 16.2198 113.941 16.8254 113.941 17.4967C113.941 18.8816 113.658 19.9772 113.092 20.7836Z" fill="#1D1D1D"/>
<path d="M25.1666 18.8686C24.473 22.1777 21.4181 24.5795 17.9023 24.5795C13.8162 24.5795 10.4922 21.3834 10.4922 17.4553C10.4922 14.0472 13.0144 11.1057 16.4899 10.4598C17.1767 10.3323 17.8452 10.7648 17.9783 11.4273C18.1114 12.0894 17.6605 12.7299 16.9719 12.8584C14.6893 13.2822 13.0332 15.2152 13.0332 17.4553C13.0332 19.8499 14.913 21.8309 17.3286 22.1039C17.517 22.1259 17.7082 22.1368 17.9025 22.1368C19.1416 22.1368 20.2935 21.6831 21.1655 20.9269C21.9199 20.2735 22.465 19.3939 22.6762 18.3858C22.8147 17.7246 23.4856 17.2968 24.1723 17.4296C24.8598 17.5635 25.3052 18.2075 25.1666 18.8686Z" fill="#FFD601"/>
<path d="M17.9334 28.3118C17.8624 28.9374 17.312 29.4007 16.6722 29.4007C16.6261 29.4007 16.5795 29.3981 16.5329 29.3933C10.193 28.7273 5.41211 23.5949 5.41211 17.455C5.41211 11.2808 10.2224 6.14531 16.6009 5.50926C17.3019 5.43845 17.9233 5.92735 17.9955 6.59819C18.0677 7.26904 17.5612 7.86925 16.8633 7.93867C11.7833 8.44557 7.95291 12.5364 7.95291 17.455C7.95291 22.3458 11.7601 26.4344 16.8085 26.9652C17.5063 27.0381 18.0097 27.6413 17.9334 28.3118Z" fill="#FF4065"/>
<path d="M16.8216 3.0385C9.48369 3.53968 3.50737 9.23295 2.9193 16.2825C2.86618 16.9216 2.31016 17.4065 1.65493 17.4065C1.62072 17.4065 1.58632 17.4052 1.55157 17.4022C0.852407 17.3485 0.330778 16.7599 0.386956 16.0874C0.721865 12.0747 2.54856 8.29914 5.53122 5.45614C8.51515 2.61123 12.4613 0.887289 16.6415 0.601985C17.3411 0.552299 17.9493 1.06093 17.9986 1.73368C18.0485 2.40678 17.5213 2.99106 16.8216 3.0385Z" fill="#22CAFF"/>
</svg>
